<?xml version="1.0" encoding="utf-8"?>
<?xml-stylesheet type="text/xsl" href="rss1.xsl"?>
<rss version="2.0" xmlns:atom="http://www.w3.org/2005/Atom" xmlns:content="http://purl.org/rss/1.0/modules/content/" xmlns:dc="http://purl.org/dc/elements/1.1/" xmlns:media="http://search.yahoo.com/mrss/">
<channel>
 <title>Getty</title>
 <link>http://www.gettyimg.com/</link>
 <atom:link href="http://www.gettyimg.com/" rel="self" type="application/rss+xml" />

 
                <item>
                <title><![CDATA[【Requests】[REQ VID] - Daddy Yankee Feat. Lloyd Banks &amp; Young Buck - Rompe (2006)]]></title>
                <link><![CDATA[https://sharemania.us/threads/daddy-yankee-feat-lloyd-banks-young-buck-rompe-2006.231694/]]></link>
                <description><![CDATA[<article>
<blockquote class="messageText SelectQuoteContainer ugc baseHtml">
Buenas Tardes, quisiera pedirles por favor este video, alguien que haya podido descargarlo cuando lo lanzaron. Muchas Gracias de antemano.<br>
<br>
<img src="https://i.imgur.com/trYmk0j.png" class="bbCodeImage LbImage" alt="[​IMG]" data-url="https://i.imgur.com/trYmk0j.png" style=""> <br>
<br>
<img src="https://i.imgur.com/yJWRCWn.png" class="bbCodeImage LbImage" alt="[​IMG]" data-url="https://i.imgur.com/yJWRCWn.png" style="">
<div class="messageTextEndMarker">&nbsp;</div>
</blockquote>
</article>]]></description>
                <author><![CDATA[llJuanjoll]]></author>
                </item>

                
                <item>
                <title><![CDATA[【UPSCALED】Yello - Waba Duba [4K AI Upscale | HEVC 10-bit | PCM 24-bit 48 kHz | TrueHD with Dolby Atmos]]]></title>
                <link><![CDATA[https://sharemania.us/threads/yello-waba-duba-4k-ai-upscale-hevc-10-bit-pcm-24-bit-48-khz-truehd-with-dolby-atmos.231695/]]></link>
                <description><![CDATA[<article>
<blockquote class="messageText SelectQuoteContainer ugc baseHtml">
<img src="https://images2.imgbox.com/58/6c/SSTNaMxR_o.jpg" class="bbCodeImage LbImage" alt="[​IMG]" data-url="https://images2.imgbox.com/58/6c/SSTNaMxR_o.jpg" style=""> <br>
<b><br>
Genre: <span style="color: rgb(0, 89, 179)">Electronic, Pop</span><br>
Style: <span style="color: rgb(0, 89, 179)">Electro, Future Jazz</span><br>
Year: <span style="color: rgb(0, 89, 179)">2020</span><br>
Video Source: <span style="color: rgb(0, 89, 179)">Apple Music, 1080p, thanks SonMaxime</span><br>
Audio Source: <span style="color: rgb(0, 89, 179)">Blu-ray, Point (Dolby Atmos Edition)</span></b><br>
<br>
“<b>Waba Duba</b>” is a song by Swiss electronic duo Yello. It is the first track from their album “Point”, released in 2020. It’s the first new music from the (at the time of the release) 75-year-old Dieter Meier and 68-year-old Boris Blank since 2016's Toy album and forty years since the release of their debut album “Solid Pressure”, released in November 1980. Judging by the reactions the video has had on social media, not only has the duo's re-appearance come as something of a surprise, it's also come as a welcome shot of fun for many.<br>
“Waba Duba” features Dieter's trademark booming vocals and Boris' inventive instrumentation coming from forty years of accumulating a library of over 100,000 different sounds and samples to work with and use at their disposal.<br>
<br>
The band was originally formed by Boris Blank (keyboards, sampling, percussion, backing vocals) and Carlos Perón (tapes) in the late 1970s. Dieter Meier (vocals, lyrics), a millionaire industrialist and gambler, was brought in when the two founders realized that they needed a singer. The new band name, Yello, was chosen as a pun based on a statement made by Dieter Meier, "a yelled Hello". Founding member Carlos Perón left the band in 1983 to start a solo career.<br>
Their sound is often characterised by unusual music samples and a heavy reliance on rhythm, with Meier as vocalist and lyricist, and Blank providing the music. They are probably best known for their singles "The Race" (1988) and "Oh Yeah" (1985), which has appeared in many films and television shows. The band has released 15 studio albums since 1980.<br>
<br>
<b>Release Info</b><br>
If you own a Dolby Atmos set, this is a good demo. It makes great use of all channels, including the sub.<br>
The video track is upscaled from 1080p to 4K with Topaz Video AI and encoded to HEVC 10-bit.<br>
The audio tracks are lossless, ripped from "Point (Dolby Atmos Edition)", synced by muxing.<br>
<br>
<div class="ToggleTriggerAnchor bbCodeSpoilerContainer">
<button type="button" class="button bbCodeSpoilerButton ToggleTrigger Tooltip JsOnly" data-target="> .SpoilerTarget"><span>Spoiler: <span class="SpoilerTitle">Media Info</span></span></button>
<div class="SpoilerTarget bbCodeSpoilerText">
<div class="bbCodeBlock bbCodeCode">
<div class="type">Code:</div>
<pre>General
Unique ID                      : 279989145278209907920400739849012375031 (0xD2A3F2A98A2453F1498D5A56ECF9EDF7)
Complete name                  : Yello - Waba Duba 4K.mkv
Format                         : Matroska
Format version                 : Version 4 / Version 2
File size                      : 619 MiB
Duration                       : 3 min 12 s
Overall bit rate mode          : Variable
Overall bit rate               : 26.9 Mb/s
Frame rate                     : 25.000 FPS
Encoded date                   : 2023-11-03 16:42:47 UTC
Writing application            : mkvmerge v80.0 ('Roundabout') 64-bit
Writing library                : libebml v1.4.4 + libmatroska v1.7.1

Video
ID                             : 1
Format                         : HEVC
Format/Info                    : High Efficiency Video Coding
Format profile                 : Main 10@L5@Main
Codec ID                       : V_MPEGH/ISO/HEVC
Duration                       : 3 min 12 s
Bit rate                       : 19.4 Mb/s
Width                          : 3 840 pixels
Height                         : 2 160 pixels
Display aspect ratio           : 16:9
Frame rate mode                : Constant
Frame rate                     : 25.000 FPS
Color space                    : YUV
Chroma subsampling             : 4:2:0
Bit depth                      : 10 bits
Bits/(Pixel*Frame)             : 0.093
Stream size                    : 446 MiB (72%)
Default                        : Yes
Forced                         : No
Color range                    : Limited
Color primaries                : BT.709
Transfer characteristics       : BT.709
Matrix coefficients            : BT.709

Audio #1
ID                             : 2
ID in the original source medi : 4352 (0x1100)
Format                         : MLP FBA 16-ch
Format/Info                    : Meridian Lossless Packing FBA with 16-channel presentation
Commercial name                : Dolby TrueHD with Dolby Atmos
Codec ID                       : A_TRUEHD
Duration                       : 3 min 7 s
Bit rate mode                  : Variable
Bit rate                       : 5 132 kb/s
Maximum bit rate               : 6 933 kb/s
Channel(s)                     : 8 channels
Channel layout                 : L R C LFE Ls Rs Lb Rb
Sampling rate                  : 48.0 kHz
Frame rate                     : 1 200.000 FPS (40 SPF)
Bit depth                      : 24 bits
Compression mode               : Lossless
Stream size                    : 115 MiB (19%)
Language                       : English
Default                        : Yes
Forced                         : No
Original source medium         : Blu-ray
Number of dynamic objects      : 15
Bed channel count              : 1 channel
Bed channel configuration      : LFE

Audio #2
ID                             : 3
ID in the original source medi : 4353 (0x1101)
Format                         : PCM
Format settings                : Little / Signed
Codec ID                       : A_PCM/INT/LIT
Duration                       : 3 min 7 s
Bit rate mode                  : Constant
Bit rate                       : 2 304 kb/s
Channel(s)                     : 2 channels
Sampling rate                  : 48.0 kHz
Frame rate                     : 30.000 FPS (1600 SPF)
Bit depth                      : 24 bits
Delay relative to video        : 21 ms
Stream size                    : 51.4 MiB (8%)
Language                       : English
Default                        : No
Forced                         : No
Original source medium         : Blu-ray

Audio #3
ID                             : 4
Format                         : AAC LC
Format/Info                    : Advanced Audio Codec Low Complexity
Codec ID                       : A_AAC-2
Duration                       : 3 min 12 s
Bit rate                       : 251 kb/s
Channel(s)                     : 2 channels
Channel layout                 : L R
Sampling rate                  : 48.0 kHz
Frame rate                     : 46.875 FPS (1024 SPF)
Compression mode               : Lossy
Stream size                    : 5.78 MiB (1%)
Default                        : No
Forced                         : No
</pre>
</div></div>
</div><br>
<div class="bbCodeBlock bbCodeVfcHH HiddenContent">
<div class="attribution type">Hidden Content:</div>
<blockquote>You must reply before you can see the hidden data contained here.</blockquote>
</div>
<div class="messageTextEndMarker">&nbsp;</div>
</blockquote>
</article>]]></description>
                <author><![CDATA[ADHDerby]]></author>
                </item>

                </channel></rss>